<svg xmlns="http://www.w3.org/2000/svg" viewBox="0 0 234 88.48"><defs><style>.cls-1{fill:#5eb7b7;}.cls-2{fill:#f2f2f2;}</style></defs><title>histo</title><g id="Calque_2" data-name="Calque 2"><g id="Calque_1-2" data-name="Calque 1"><path class="cls-1" d="M62.55,1.1V79.43H51.32V45.51H11.24V79.43H0V1.1H11.24V34.7H51.32V1.1Z"/><path class="cls-2" d="M71,2.63A2.4,2.4,0,0,1,71.92.76,2.9,2.9,0,0,1,73.86,0a2.84,2.84,0,0,1,1.92.76,2.43,2.43,0,0,1,.86,1.87,2.39,2.39,0,0,1-.86,1.92,2.94,2.94,0,0,1-1.92.72,3,3,0,0,1-1.94-.72A2.35,2.35,0,0,1,71,2.63Zm.24,7.19h4.84v20H71.27Z"/><path class="cls-2" d="M89.48,30.28a11.58,11.58,0,0,1-4.22-.79,9.18,9.18,0,0,1-3.4-2.28l2.06-2.78a9.35,9.35,0,0,0,2.59,1.82,6,6,0,0,0,2.58.62,5.2,5.2,0,0,0,2.45-.55,1.91,1.91,0,0,0,1-1.84,2,2,0,0,0-.7-1.63,6,6,0,0,0-1.74-1c-.71-.25-1.46-.49-2.26-.72-3.41-1.11-5.12-3.08-5.12-5.89a6.06,6.06,0,0,1,.79-3A5.88,5.88,0,0,1,86,10a8.31,8.31,0,0,1,4-.89,13.38,13.38,0,0,1,3.79.5,8.92,8.92,0,0,1,3.11,1.71L95,14.23a5.66,5.66,0,0,0-2-1.32,6.77,6.77,0,0,0-2.13-.5,4.08,4.08,0,0,0-2.26.6,1.79,1.79,0,0,0-1,1.6,2,2,0,0,0,.67,1.63,5.2,5.2,0,0,0,1.74.93l2.18.74a10.78,10.78,0,0,1,3.67,2,4.52,4.52,0,0,1,1.46,3.64,6.76,6.76,0,0,1-.86,3.35,6.31,6.31,0,0,1-2.61,2.47A9.29,9.29,0,0,1,89.48,30.28Z"/><path class="cls-2" d="M105.43,1.05h4.89V9.87h5.36v3.78h-5.36v16.2h-4.89V13.65h-3.55V9.87h3.55Z"/><path class="cls-2" d="M119.27,19.64a10.3,10.3,0,0,1,1.44-5.41,10.55,10.55,0,0,1,4-3.81A11.72,11.72,0,0,1,130.48,9a11.39,11.39,0,0,1,5.77,1.41,10,10,0,0,1,3.84,3.81,10.74,10.74,0,0,1,1.37,5.41,10.7,10.7,0,0,1-1.4,5.44,10.06,10.06,0,0,1-3.88,3.83,11.55,11.55,0,0,1-5.79,1.41,12.21,12.21,0,0,1-5.7-1.29,9.91,9.91,0,0,1-4-3.69A10.79,10.79,0,0,1,119.27,19.64Zm4.89.05a6.87,6.87,0,0,0,.82,3.4,6.32,6.32,0,0,0,2.22,2.37,6.11,6.11,0,0,0,7.62-1,6.76,6.76,0,0,0,1.75-4.74,6.85,6.85,0,0,0-1.75-4.77A5.78,5.78,0,0,0,130.34,13a5.68,5.68,0,0,0-3.16.91,6.44,6.44,0,0,0-2.2,2.45A7,7,0,0,0,124.16,19.69Z"/><path class="cls-2" d="M147.06,2.63A2.37,2.37,0,0,1,148,.76,2.88,2.88,0,0,1,149.88,0a2.8,2.8,0,0,1,1.92.76,2.4,2.4,0,0,1,.86,1.87,2.36,2.36,0,0,1-.86,1.92,2.9,2.9,0,0,1-1.92.72A3,3,0,0,1,148,4.55,2.33,2.33,0,0,1,147.06,2.63Zm.24,7.19h4.84v20H147.3Z"/><path class="cls-2" d="M164,9.82l.38,4.74a9.42,9.42,0,0,1,2.3-3,11.61,11.61,0,0,1,3-1.91A6.94,6.94,0,0,1,172.35,9l-.24,4.79a6.7,6.7,0,0,0-4,.86,7.27,7.27,0,0,0-2.66,2.68,7.13,7.13,0,0,0-1,3.59v8.92h-4.83v-20Z"/><path class="cls-2" d="M186.49,30.32a12.25,12.25,0,0,1-6-1.36,9.51,9.51,0,0,1-3.83-3.79,11.15,11.15,0,0,1-1.34-5.48,9.94,9.94,0,0,1,1.51-5.39,11.2,11.2,0,0,1,4.05-3.86A11.35,11.35,0,0,1,186.58,9a9.8,9.8,0,0,1,6.69,2.32,11.61,11.61,0,0,1,3.56,6.54l-15.66,5.41a6,6,0,0,0,2.28,2.16,6.44,6.44,0,0,0,3.13.76,7.26,7.26,0,0,0,2.5-.43,8.11,8.11,0,0,0,2.24-1.24l2.21,3.59a13.46,13.46,0,0,1-3.4,1.6A11.6,11.6,0,0,1,186.49,30.32ZM180.16,19.4c0,.35,0,.69.05,1l11.17-4.07a7.07,7.07,0,0,0-1.85-2.45,4.86,4.86,0,0,0-3.28-1.05,5.71,5.71,0,0,0-4.39,1.84A6.72,6.72,0,0,0,180.16,19.4Z"/><path class="cls-2" d="M75.67,79.32A9.93,9.93,0,0,1,70.59,78,9.35,9.35,0,0,1,67,74.27a12,12,0,0,1-1.29-5.73,11,11,0,0,1,1.39-5.67,9.29,9.29,0,0,1,3.76-3.62A11.3,11.3,0,0,1,76.24,58a10.52,10.52,0,0,1,4.22.86,8.1,8.1,0,0,1,3.25,2.44V41.62h4.84V78.85H83.67V75.92a11.78,11.78,0,0,1-3.48,2.45A10.57,10.57,0,0,1,75.67,79.32Zm1.48-4.07a6.71,6.71,0,0,0,4.24-1.32,6.31,6.31,0,0,0,2.28-3.52v-4a5.77,5.77,0,0,0-2.33-3.31,7,7,0,0,0-4.19-1.29,6.41,6.41,0,0,0-3.21.84A6.26,6.26,0,0,0,71.57,65a6.77,6.77,0,0,0-.89,3.48,6.61,6.61,0,0,0,.89,3.42,6.87,6.87,0,0,0,2.37,2.42A6,6,0,0,0,77.15,75.25Z"/><path class="cls-2" d="M102.54,79.66A6.41,6.41,0,0,1,98,78a5.77,5.77,0,0,1-1.85-4.31V58.82H101V72a4.32,4.32,0,0,0,.91,2.56,3.33,3.33,0,0,0,2.59,1,4.74,4.74,0,0,0,2.92-1,6.6,6.6,0,0,0,2-2.71,9.8,9.8,0,0,0,.74-3.88V58.82H115v20h-4.36l-.29-3.69a8.1,8.1,0,0,1-3.09,3.23A8.94,8.94,0,0,1,102.54,79.66Z"/><path class="cls-2" d="M134.59,79.28a11.62,11.62,0,0,1-4.22-.79,9.26,9.26,0,0,1-3.4-2.28L129,73.43a9.5,9.5,0,0,0,2.59,1.82,6.06,6.06,0,0,0,2.59.62,5.16,5.16,0,0,0,2.44-.55,1.91,1.91,0,0,0,1-1.84,2,2,0,0,0-.69-1.63,5.91,5.91,0,0,0-1.75-1q-1-.37-2.25-.72c-3.42-1.11-5.13-3.08-5.13-5.89a6.17,6.17,0,0,1,.79-3,5.91,5.91,0,0,1,2.4-2.32,8.31,8.31,0,0,1,4.05-.89,13.43,13.43,0,0,1,3.79.5A8.92,8.92,0,0,1,142,60.31l-1.87,2.92a5.7,5.7,0,0,0-2-1.32,6.65,6.65,0,0,0-2.13-.5,4.07,4.07,0,0,0-2.25.6,1.8,1.8,0,0,0-1,1.6,2,2,0,0,0,.67,1.63,5.25,5.25,0,0,0,1.75.93l2.18.74a10.64,10.64,0,0,1,3.66,2,4.5,4.5,0,0,1,1.47,3.64,6.67,6.67,0,0,1-.87,3.35A6.19,6.19,0,0,1,139,78.34,9.23,9.23,0,0,1,134.59,79.28Z"/><path class="cls-2" d="M160.61,79.32a9.63,9.63,0,0,1-4-.86A7.85,7.85,0,0,1,153.47,76V88.48h-4.84v-30h4.17l.43,3.25a11.54,11.54,0,0,1,3.54-2.68A10.51,10.51,0,0,1,161.51,58a9.4,9.4,0,0,1,8.58,5.1,11.88,11.88,0,0,1,1.3,5.68A10.79,10.79,0,0,1,170,74.41a9.45,9.45,0,0,1-3.83,3.64A11.71,11.71,0,0,1,160.61,79.32Zm-1-3.83a7,7,0,0,0,3.42-.86,6.74,6.74,0,0,0,2.49-2.37,6.42,6.42,0,0,0,.94-3.43,7,7,0,0,0-.86-3.49,6.3,6.3,0,0,0-2.35-2.4,6.44,6.44,0,0,0-3.31-.86,6.51,6.51,0,0,0-4.19,1.34A6.69,6.69,0,0,0,153.47,67v3.59a5.67,5.67,0,0,0,2.11,3.54A6.24,6.24,0,0,0,159.65,75.49Z"/><path class="cls-2" d="M175.55,68.64A10.3,10.3,0,0,1,177,63.23a10.55,10.55,0,0,1,3.95-3.81A11.72,11.72,0,0,1,186.76,58a11.39,11.39,0,0,1,5.77,1.41,10,10,0,0,1,3.84,3.81,11.39,11.39,0,0,1,0,10.85,10.13,10.13,0,0,1-3.88,3.83,11.56,11.56,0,0,1-5.8,1.41A12.24,12.24,0,0,1,181,78a9.88,9.88,0,0,1-4-3.69A10.79,10.79,0,0,1,175.55,68.64Zm4.89,0a7,7,0,0,0,.81,3.4,6.43,6.43,0,0,0,2.23,2.37,6.11,6.11,0,0,0,7.62-1,6.8,6.8,0,0,0,1.74-4.74,6.89,6.89,0,0,0-1.74-4.77A5.78,5.78,0,0,0,186.62,62a5.68,5.68,0,0,0-3.16.91,6.54,6.54,0,0,0-2.21,2.45A7.06,7.06,0,0,0,180.44,68.69Z"/><path class="cls-2" d="M207.89,58.82l.38,4.74a9.57,9.57,0,0,1,2.3-3,11.66,11.66,0,0,1,3-1.91,6.85,6.85,0,0,1,2.66-.67L216,62.8a6.7,6.7,0,0,0-3.95.86,7.3,7.3,0,0,0-3.61,6.27v8.92h-4.84v-20Z"/><path class="cls-2" d="M223.75,50.05h4.89v8.82H234v3.78h-5.36v16.2h-4.89V62.65H220.2V58.87h3.55Z"/></g></g></svg>