<svg xmlns="http://www.w3.org/2000/svg" viewBox="0 0 70 77.85"><defs><style>.cls-1{fill:#474747;}.cls-2{fill:#5eb7b7;}.cls-3{fill:#f2f2f2;}.cls-4{fill:#eee;}</style></defs><title>logoapo</title><g id="Calque_2" data-name="Calque 2"><g id="Calque_1-2" data-name="Calque 1"><rect class="cls-1" x="16.96" y="18.08" width="37.88" height="40.69"/><rect class="cls-2" width="35.96" height="34.31"/><rect class="cls-2" x="34.04" y="43.54" width="35.96" height="34.31"/><path class="cls-3" d="M9.32,20c-1,2.27-1.68,4-2.13,5.21a9.38,9.38,0,0,0-.66,2.33H4.83q0-.51,4.42-10.07t4.41-10.6h1.8q0,.95,4.35,10.38t4.35,10.29H22.53q0-1-2.86-7.54ZM14.55,8.12h-.14q0,.47-4.71,10.79h9.48q-2.34-5.49-3.49-8A18.4,18.4,0,0,1,14.55,8.12Z"/><path class="cls-3" d="M26.44,10a1.12,1.12,0,0,1,.93-.37.83.83,0,0,1,.67.3,1.17,1.17,0,0,1,.25.75,1.29,1.29,0,0,1-.3.86,1.14,1.14,0,0,1-.93.36.83.83,0,0,1-.66-.31,1.11,1.11,0,0,1-.26-.74A1.28,1.28,0,0,1,26.44,10Z"/><path class="cls-3" d="M28.17,12.28,30,11.85c-.11,2.47-.17,5.25-.17,8.36q0,3.87.24,7H28.36c.16-2.56.24-4.89.24-7A64.33,64.33,0,0,0,28.17,12.28Z"/><path class="cls-3" d="M29.16,9.26a1.07,1.07,0,0,1,.92-.39,1,1,0,0,1,.77.31,1.19,1.19,0,0,1,.28.83,1.5,1.5,0,0,1-.31.94,1.17,1.17,0,0,1-1,.39.9.9,0,0,1-.72-.33,1.28,1.28,0,0,1-.27-.81A1.53,1.53,0,0,1,29.16,9.26Z"/><path class="cls-3" d="M29.87,38.68a4.24,4.24,0,0,0-2.41-1h-.55q0,5.58.17,11.07H25.42c.08-2.18.15-4.09.2-5.74s.07-3.36.07-5.14c0-3.2-.09-6.47-.27-9.79h1.66q-.16,3.3-.17,8.55h.43c.84,0,2.61-1.34,5.29-4s4-4.19,4-4.52h1.92c0,.14-.29.46-.87,1S35.88,30.81,34,32.78a34.28,34.28,0,0,1-4.63,4.12V37a5.63,5.63,0,0,1,2.38,1.47c.9.83,2.35,2.4,4.37,4.73q4.59,5.24,4.59,5.55h-1.8a25.42,25.42,0,0,0-1.72-2.14C36,45.28,34.91,44,33.79,42.67A27.73,27.73,0,0,0,29.87,38.68Z"/><path class="cls-3" d="M44.54,33.82l1.79-.43c-.12,2.46-.17,5.25-.17,8.35,0,2.58.07,4.92.23,7H44.73q.24-3.82.24-7A66.07,66.07,0,0,0,44.54,33.82Z"/><path class="cls-3" d="M46.07,30.48a1.42,1.42,0,0,1,.27.86,1.66,1.66,0,0,1-.28,1,1,1,0,0,1-.87.42,1,1,0,0,1-.79-.37,1.36,1.36,0,0,1-.29-.87c0-.36-1.2-.68-1-1a5.7,5.7,0,0,1,2.24-.43A.82.82,0,0,1,46.07,30.48Z"/><path class="cls-4" d="M50.66,55.91l0,3.19q0,7.07.29,11.92l-1.34,0a10.73,10.73,0,0,1-.12-1.71h-.16a5.62,5.62,0,0,1-2.14,1.47,7.93,7.93,0,0,1-3.19.61,5.9,5.9,0,0,1-4.73-2.18,8.05,8.05,0,0,1-1.83-5.34,9,9,0,0,1,2.07-6.15,7,7,0,0,1,5.55-2.38,8.78,8.78,0,0,1,2.5.32,3.69,3.69,0,0,1,1.63,1h0c0-1.91-.05-4.55-.13-7.93l1.67-.1c-.09,1.27-.13,2.81-.13,4.62C50.65,54.39,50.65,55.28,50.66,55.91ZM49.24,57.8a4.19,4.19,0,0,0-1.7-1,7.49,7.49,0,0,0-2.22-.32,5.84,5.84,0,0,0-4.75,1.9A8.32,8.32,0,0,0,39,63.9a6.54,6.54,0,0,0,1.51,4.53,5.34,5.34,0,0,0,4.18,1.69,6.53,6.53,0,0,0,2.43-.44,7.15,7.15,0,0,0,2.38-1.78c0-.54,0-1.35,0-2.43Q49.49,61.35,49.24,57.8Z"/><path class="cls-4" d="M54.22,69.23a7.7,7.7,0,0,1-1.74-5.61,9.19,9.19,0,0,1,2.37-6.36,6.9,6.9,0,0,1,5.36-2.18,6.65,6.65,0,0,1,4.49,2.05c1.34,1.31,2,3.25,1.88,5.83a9,9,0,0,1-2.38,6.28,6.79,6.79,0,0,1-5.26,2.17A6.32,6.32,0,0,1,54.22,69.23Zm1.17-11A9,9,0,0,0,53.87,63a8.17,8.17,0,0,0,1.37,5.23,5,5,0,0,0,4,2.16,4.72,4.72,0,0,0,4.38-2.11,8.83,8.83,0,0,0,1.55-4.7,8.2,8.2,0,0,0-1.41-5.21,5,5,0,0,0-4.06-2.2A4.63,4.63,0,0,0,55.39,58.23Z"/></g></g></svg>