<svg xmlns="http://www.w3.org/2000/svg" viewBox="0 0 174.52 63.91"><defs><style>.cls-1{fill:#5eb7b7;}.cls-2{fill:#f2f2f2;}</style></defs><title>notreh</title><g id="Calque_2" data-name="Calque 2"><g id="Calque_1-2" data-name="Calque 1"><path class="cls-1" d="M52.17,63.91,8.51,20.33l.17,41.51H0V0H.33L44,44.15,43.82,1.9h8.6v62Z"/><path class="cls-2" d="M57.69,19.34a7.84,7.84,0,0,1,1.09-4.09,8,8,0,0,1,3-2.87,8.84,8.84,0,0,1,4.39-1.07,8.62,8.62,0,0,1,4.36,1.07,7.66,7.66,0,0,1,2.89,2.87,8.1,8.1,0,0,1,1,4.09,8.07,8.07,0,0,1-1.05,4.1,7.61,7.61,0,0,1-2.93,2.89,8.71,8.71,0,0,1-4.37,1.07,9.21,9.21,0,0,1-4.3-1,7.46,7.46,0,0,1-3-2.78A8.07,8.07,0,0,1,57.69,19.34Zm3.69,0A5.25,5.25,0,0,0,62,21.94a4.81,4.81,0,0,0,1.68,1.79A4.6,4.6,0,0,0,69.42,23a5.11,5.11,0,0,0,1.32-3.58,5.15,5.15,0,0,0-1.32-3.59A4.33,4.33,0,0,0,66,14.31a4.23,4.23,0,0,0-2.38.69A4.92,4.92,0,0,0,62,16.84,5.32,5.32,0,0,0,61.38,19.37Z"/><path class="cls-2" d="M80.28,5.31H84V12h4v2.86H84V27H80.28V14.82H77.61V12h2.67Z"/><path class="cls-2" d="M95.29,11.93l.28,3.57a7.47,7.47,0,0,1,1.74-2.24,8.79,8.79,0,0,1,2.26-1.44,5.2,5.2,0,0,1,2-.51l-.18,3.62a5,5,0,0,0-3,.65,5.46,5.46,0,0,0-2,2,5.33,5.33,0,0,0-.73,2.71V27H92V11.93Z"/><path class="cls-2" d="M112.24,27.4a9.31,9.31,0,0,1-4.49-1,7.23,7.23,0,0,1-2.89-2.86,8.46,8.46,0,0,1-1-4.14A7.49,7.49,0,0,1,105,15.31a8.55,8.55,0,0,1,7.32-4,7.39,7.39,0,0,1,5,1.76A8.68,8.68,0,0,1,120,18l-11.81,4.08a4.46,4.46,0,0,0,1.71,1.63,4.84,4.84,0,0,0,2.37.58,5.43,5.43,0,0,0,1.88-.33,6.06,6.06,0,0,0,1.7-.94l1.66,2.71A10.13,10.13,0,0,1,115,26.94,8.65,8.65,0,0,1,112.24,27.4Zm-4.77-8.25c0,.27,0,.52,0,.76l8.43-3.07a5.28,5.28,0,0,0-1.4-1.84,3.65,3.65,0,0,0-2.47-.8,4.29,4.29,0,0,0-3.31,1.4A5,5,0,0,0,107.47,19.15Z"/><path class="cls-2" d="M59.55,63.18V35.09h3.58V50.75a6.45,6.45,0,0,1,2.33-2.34,7,7,0,0,1,3.67-.92,4.92,4.92,0,0,1,3.47,1.27A4.44,4.44,0,0,1,74,52V63.18H70.39v-9.9a2.91,2.91,0,0,0-.68-1.9,2.67,2.67,0,0,0-2-.78,4,4,0,0,0-3.2,1.61,6.35,6.35,0,0,0-1.28,4.07v6.9Z"/><path class="cls-2" d="M79.61,42.65a1.78,1.78,0,0,1,.67-1.41,2.15,2.15,0,0,1,1.46-.58,2.13,2.13,0,0,1,1.45.58,1.9,1.9,0,0,1,0,2.86,2.23,2.23,0,0,1-1.45.54,2.26,2.26,0,0,1-1.46-.54A1.78,1.78,0,0,1,79.61,42.65Zm.18,5.42h3.65V63.18H79.79Z"/><path class="cls-2" d="M93.52,63.51a8.56,8.56,0,0,1-3.18-.6,6.85,6.85,0,0,1-2.56-1.72l1.55-2.1a7.14,7.14,0,0,0,2,1.38,4.71,4.71,0,0,0,2,.47,3.91,3.91,0,0,0,1.85-.42,1.43,1.43,0,0,0,.79-1.39,1.5,1.5,0,0,0-.52-1.23A4.35,4.35,0,0,0,94,57.18c-.53-.19-1.1-.37-1.7-.54q-3.87-1.28-3.87-4.45a4.56,4.56,0,0,1,.6-2.24,4.47,4.47,0,0,1,1.8-1.75,6.24,6.24,0,0,1,3.06-.67,9.76,9.76,0,0,1,2.86.38,6.57,6.57,0,0,1,2.34,1.28l-1.4,2.21a4.41,4.41,0,0,0-1.54-1A5.39,5.39,0,0,0,94.57,50a3.07,3.07,0,0,0-1.7.46,1.36,1.36,0,0,0-.72,1.2,1.5,1.5,0,0,0,.51,1.23,3.62,3.62,0,0,0,1.31.71l1.65.56a8.06,8.06,0,0,1,2.76,1.48,3.4,3.4,0,0,1,1.11,2.75,5.12,5.12,0,0,1-.65,2.53,4.86,4.86,0,0,1-2,1.86A7.08,7.08,0,0,1,93.52,63.51Z"/><path class="cls-2" d="M105.56,41.46h3.69v6.65h4V51h-4V63.18h-3.69V51h-2.68V48.11h2.68Z"/><path class="cls-2" d="M116,55.48a7.69,7.69,0,0,1,1.09-4.08,7.93,7.93,0,0,1,3-2.88,8.83,8.83,0,0,1,4.39-1.06,8.67,8.67,0,0,1,4.36,1.06,7.61,7.61,0,0,1,2.89,2.88,8.56,8.56,0,0,1,0,8.18,7.54,7.54,0,0,1-2.93,2.89,8.61,8.61,0,0,1-4.37,1.07,9.17,9.17,0,0,1-4.3-1,7.41,7.41,0,0,1-3-2.79A8,8,0,0,1,116,55.48Zm3.69,0a5.11,5.11,0,0,0,.62,2.56A4.59,4.59,0,0,0,122,59.87a4.6,4.6,0,0,0,5.74-.78,5.08,5.08,0,0,0,1.32-3.57,5.19,5.19,0,0,0-1.32-3.6,4.35,4.35,0,0,0-3.38-1.46,4.3,4.3,0,0,0-2.38.68A4.87,4.87,0,0,0,120.31,53,5.18,5.18,0,0,0,119.69,55.52Z"/><path class="cls-2" d="M137,42.65a1.78,1.78,0,0,1,.67-1.41,2.15,2.15,0,0,1,1.46-.58,2.13,2.13,0,0,1,1.45.58,1.9,1.9,0,0,1,0,2.86,2.23,2.23,0,0,1-1.45.54,2.26,2.26,0,0,1-1.46-.54A1.78,1.78,0,0,1,137,42.65Zm.18,5.42h3.65V63.18h-3.65Z"/><path class="cls-2" d="M149.76,48.07l.29,3.58a6.94,6.94,0,0,1,1.74-2.24A8.69,8.69,0,0,1,154,48a5.39,5.39,0,0,1,2-.5l-.18,3.61a5.14,5.14,0,0,0-3,.65,5.44,5.44,0,0,0-2,2,5.36,5.36,0,0,0-.72,2.71v6.72h-3.65V48.07Z"/><path class="cls-2" d="M166.71,63.54a9.15,9.15,0,0,1-4.48-1,7.27,7.27,0,0,1-2.89-2.85,8.46,8.46,0,0,1-1-4.14,7.53,7.53,0,0,1,1.14-4.07,8.35,8.35,0,0,1,3.05-2.91,8.55,8.55,0,0,1,4.27-1.08,7.38,7.38,0,0,1,5,1.75,8.77,8.77,0,0,1,2.69,4.93L162.7,58.23a4.63,4.63,0,0,0,1.72,1.63,4.94,4.94,0,0,0,2.37.57,5.71,5.71,0,0,0,1.88-.32,6.27,6.27,0,0,0,1.69-.94L172,61.88a10.3,10.3,0,0,1-2.57,1.21A9,9,0,0,1,166.71,63.54Zm-4.77-8.24a6.23,6.23,0,0,0,0,.76L170.4,53A5.28,5.28,0,0,0,169,51.14a3.66,3.66,0,0,0-2.48-.79,4.26,4.26,0,0,0-3.3,1.39A5,5,0,0,0,161.94,55.3Z"/></g></g></svg>