<svg xmlns="http://www.w3.org/2000/svg" viewBox="0 0 297.55 175.57"><defs><style>.cls-1{fill:#5eb7b7;}.cls-2{fill:#f2f2f2;}</style></defs><title>avant_1</title><g id="Calque_2" data-name="Calque 2"><g id="Calque_1-2" data-name="Calque 1"><path class="cls-1" d="M0,129.85,54.87,0h1l54.87,129.85H90L77.57,98.55H30.79l-12.9,31.3ZM37,83.07H71.55l-16.86-43Z"/><path class="cls-2" d="M120.93,128.1l-11.16-20.41h5.65l5.79,12.15,5.32-12.15h5.32L121.16,128.1Z"/><path class="cls-2" d="M143.9,128a10.8,10.8,0,0,1-5.07-1.19,8.72,8.72,0,0,1-3.61-3.49,11.23,11.23,0,0,1-1.33-5.72,11.1,11.1,0,0,1,1.4-5.72,9.88,9.88,0,0,1,8.71-5,8.58,8.58,0,0,1,4.56,1.12,9.19,9.19,0,0,1,2.85,2.68l.33-3h4.41v19.84h-4.79V124.4a10.67,10.67,0,0,1-4.08,3A8.74,8.74,0,0,1,143.9,128Zm1.29-3.94a6.37,6.37,0,0,0,4-1.26,5.9,5.9,0,0,0,2.19-3.44v-4.08a6.07,6.07,0,0,0-2.3-3.23,6.56,6.56,0,0,0-4-1.28,6,6,0,0,0-3.13.83,6.12,6.12,0,0,0-2.28,2.32,6.84,6.84,0,0,0-.85,3.45,6.64,6.64,0,0,0,.88,3.41,6.44,6.44,0,0,0,2.35,2.4A6.05,6.05,0,0,0,145.19,124.07Z"/><path class="cls-2" d="M168,107.69l.33,3.8a7.29,7.29,0,0,1,3-3.33,9.45,9.45,0,0,1,4.89-1.23,6.44,6.44,0,0,1,4.55,1.66,5.82,5.82,0,0,1,1.9,4.28v14.66H177.9v-13a3.88,3.88,0,0,0-.9-2.5,3.49,3.49,0,0,0-2.66-1,5.22,5.22,0,0,0-4.21,2.09,8.31,8.31,0,0,0-1.68,5.37v9.06h-4.8V107.69Z"/><path class="cls-2" d="M192.14,99H197v8.74h5.32v3.75H197v16h-4.84v-16h-3.51v-3.75h3.51Z"/><path class="cls-2" d="M217.8,99h4.84v8.74H228v3.75h-5.32v16H217.8v-16h-3.52v-3.75h3.52Z"/><path class="cls-2" d="M231.52,117.42a10.2,10.2,0,0,1,1.42-5.36,10.47,10.47,0,0,1,3.92-3.78,11.59,11.59,0,0,1,5.76-1.4,11.39,11.39,0,0,1,5.73,1.4,10,10,0,0,1,3.79,3.78,11.23,11.23,0,0,1,0,10.75,10.11,10.11,0,0,1-3.85,3.8,11.46,11.46,0,0,1-5.74,1.4,12.15,12.15,0,0,1-5.65-1.28,9.87,9.87,0,0,1-3.92-3.66A10.67,10.67,0,0,1,231.52,117.42Zm4.84,0a6.86,6.86,0,0,0,.81,3.37,6.29,6.29,0,0,0,2.2,2.35,6.06,6.06,0,0,0,7.55-1,6.69,6.69,0,0,0,1.73-4.7,6.8,6.8,0,0,0-1.73-4.73,5.7,5.7,0,0,0-4.44-1.92,5.6,5.6,0,0,0-3.13.9,6.4,6.4,0,0,0-2.18,2.43A6.94,6.94,0,0,0,236.36,117.47Z"/><path class="cls-2" d="M265.65,128.34a6.34,6.34,0,0,1-4.53-1.66,5.72,5.72,0,0,1-1.83-4.27V107.69h4.79v13a4.32,4.32,0,0,0,.91,2.54,3.24,3.24,0,0,0,2.56,1,4.68,4.68,0,0,0,2.9-1,6.46,6.46,0,0,0,2-2.68,9.63,9.63,0,0,0,.74-3.84v-9.07H278v19.84h-4.32l-.28-3.65a8.08,8.08,0,0,1-3.06,3.2A8.82,8.82,0,0,1,265.65,128.34Z"/><path class="cls-2" d="M287.39,99h4.85v8.74h5.31v3.75h-5.31v16h-4.85v-16h-3.51v-3.75h3.51Z"/><path class="cls-2" d="M10.79,167.45a6.38,6.38,0,0,1-4.53-1.66,5.7,5.7,0,0,1-1.83-4.27V146.8h4.8v13a4.23,4.23,0,0,0,.9,2.54,3.25,3.25,0,0,0,2.56,1,4.67,4.67,0,0,0,2.9-1,6.63,6.63,0,0,0,2-2.68,9.65,9.65,0,0,0,.73-3.85V146.8h4.8v19.85H18.82L18.53,163a8,8,0,0,1-3.06,3.21A8.91,8.91,0,0,1,10.79,167.45Z"/><path class="cls-2" d="M35,146.8l.33,3.8a7.27,7.27,0,0,1,3-3.32A9.36,9.36,0,0,1,43.22,146a6.49,6.49,0,0,1,4.56,1.67,5.87,5.87,0,0,1,1.9,4.27v14.67h-4.8v-13a3.82,3.82,0,0,0-.9-2.49,3.49,3.49,0,0,0-2.66-1,5.16,5.16,0,0,0-4.2,2.09,8.23,8.23,0,0,0-1.69,5.36v9.07H30.64V146.8Z"/><path class="cls-1" d="M72.7,167.12a12.12,12.12,0,0,1-5.89-1.35A9.37,9.37,0,0,1,63,162a11,11,0,0,1-1.33-5.44,9.86,9.86,0,0,1,1.49-5.34,11.06,11.06,0,0,1,4-3.82A11.19,11.19,0,0,1,72.8,146a9.69,9.69,0,0,1,6.62,2.3A11.53,11.53,0,0,1,83,154.78l-15.53,5.36a6,6,0,0,0,2.26,2.14,6.37,6.37,0,0,0,3.11.76,7.08,7.08,0,0,0,2.46-.43,7.94,7.94,0,0,0,2.24-1.23l2.18,3.56a14.12,14.12,0,0,1-3.37,1.59A12,12,0,0,1,72.7,167.12ZM66.43,156.3c0,.35,0,.68,0,1l11.06-4a7,7,0,0,0-1.82-2.42,4.82,4.82,0,0,0-3.26-1.05,5.63,5.63,0,0,0-4.34,1.83A6.66,6.66,0,0,0,66.43,156.3Zm13.91-19.47-6.17,6.37h-3L75,136.83Z"/><path class="cls-1" d="M90.22,138.11h4.84v8.74h5.32v3.75H95.06v16.05H90.22V150.6H86.71v-3.75h3.51Z"/><path class="cls-1" d="M114,167.12a10.84,10.84,0,0,1-5.08-1.18,8.79,8.79,0,0,1-3.61-3.49,11.29,11.29,0,0,1-1.33-5.72,11.15,11.15,0,0,1,1.4-5.72,9.83,9.83,0,0,1,8.71-5,8.56,8.56,0,0,1,4.56,1.11,9.31,9.31,0,0,1,2.85,2.68l.33-3h4.42v19.85h-4.8v-3.14a10,10,0,0,1-1.57,1.52,10.27,10.27,0,0,1-2.51,1.48A8.69,8.69,0,0,1,114,167.12Zm1.28-3.94a6.42,6.42,0,0,0,4-1.26,5.87,5.87,0,0,0,2.18-3.44V154.4a6.1,6.1,0,0,0-2.3-3.23,6.6,6.6,0,0,0-4-1.28,6.12,6.12,0,0,0-5.42,3.16,6.78,6.78,0,0,0-.85,3.44,6.68,6.68,0,0,0,.88,3.42,6.49,6.49,0,0,0,2.35,2.39A6.05,6.05,0,0,0,115.24,163.18Z"/><path class="cls-1" d="M135.61,138.11h4.84v8.74h5.32v3.75h-5.32v16.05h-4.84V150.6h-3.52v-3.75h3.52Z"/><path class="cls-2" d="M164.7,167a7.9,7.9,0,0,1-4.06-1.05,7.45,7.45,0,0,1-2.84-3,9.59,9.59,0,0,1-1-4.58,8.8,8.8,0,0,1,1.11-4.54,7.43,7.43,0,0,1,3-2.9,9.09,9.09,0,0,1,4.27-1,8.44,8.44,0,0,1,3.37.7,6.47,6.47,0,0,1,2.61,2V136.83H175v29.79H171.1v-2.34a9.1,9.1,0,0,1-2.78,2A8.38,8.38,0,0,1,164.7,167Zm1.19-3.25a5.32,5.32,0,0,0,3.39-1.06,5,5,0,0,0,1.82-2.82v-3.18a4.63,4.63,0,0,0-1.86-2.64,5.56,5.56,0,0,0-3.35-1,5.13,5.13,0,0,0-4.47,2.55,5.42,5.42,0,0,0-.71,2.78,5.33,5.33,0,0,0,.71,2.74,5.6,5.6,0,0,0,1.9,1.94A4.88,4.88,0,0,0,165.89,163.75Z"/><path class="cls-2" d="M183.06,137.88c0,1.61-.05,3.22-.07,4.82s-.05,3.21-.08,4.85h-3.33v-9.67Z"/><path class="cls-1" d="M194.48,166.83a11.65,11.65,0,0,1-5.68-1.3,9,9,0,0,1-3.66-3.62,10.65,10.65,0,0,1-1.28-5.24,9.55,9.55,0,0,1,1.44-5.15,10.78,10.78,0,0,1,9.27-5.05,9.34,9.34,0,0,1,6.38,2.22,11.08,11.08,0,0,1,3.41,6.24l-15,5.18a5.69,5.69,0,0,0,2.17,2,6.17,6.17,0,0,0,3,.74,6.86,6.86,0,0,0,2.38-.42,7.72,7.72,0,0,0,2.15-1.19l2.11,3.44a13.3,13.3,0,0,1-3.25,1.53A11.41,11.41,0,0,1,194.48,166.83Zm-6-10.43c0,.33,0,.65,0,1l10.67-3.89a6.76,6.76,0,0,0-1.77-2.34,4.61,4.61,0,0,0-3.13-1,5.42,5.42,0,0,0-4.19,1.76A6.4,6.4,0,0,0,188.44,156.4Z"/><path class="cls-1" d="M215.07,166.79a10.76,10.76,0,0,1-4-.76,8.8,8.8,0,0,1-3.26-2.17l2-2.66a9,9,0,0,0,2.47,1.74,5.85,5.85,0,0,0,2.48.6A5,5,0,0,0,217,163a1.84,1.84,0,0,0,1-1.76,1.9,1.9,0,0,0-.67-1.56,5.62,5.62,0,0,0-1.67-.91c-.67-.25-1.39-.47-2.15-.69-3.26-1.07-4.89-2.94-4.89-5.63a5.89,5.89,0,0,1,.75-2.84,5.7,5.7,0,0,1,2.29-2.22,8,8,0,0,1,3.87-.84,12.57,12.57,0,0,1,3.61.48,8.45,8.45,0,0,1,3,1.62l-1.79,2.79a5.73,5.73,0,0,0-1.94-1.25,6.63,6.63,0,0,0-2-.48,4,4,0,0,0-2.15.57,1.74,1.74,0,0,0-.92,1.53,2,2,0,0,0,.64,1.56,5.11,5.11,0,0,0,1.68.89l2.08.71a10.16,10.16,0,0,1,3.5,1.88,4.3,4.3,0,0,1,1.39,3.47,6.44,6.44,0,0,1-.82,3.21,6,6,0,0,1-2.49,2.35A8.91,8.91,0,0,1,215.07,166.79Z"/><path class="cls-1" d="M239.92,166.83a9.24,9.24,0,0,1-3.84-.82,7.67,7.67,0,0,1-3-2.33v11.89h-4.62V146.92h4l.42,3.12a10.93,10.93,0,0,1,3.38-2.57,10,10,0,0,1,4.53-1,9,9,0,0,1,8.2,4.87,11.38,11.38,0,0,1,1.23,5.42,10.31,10.31,0,0,1-1.35,5.38,9.14,9.14,0,0,1-3.66,3.48A11.18,11.18,0,0,1,239.92,166.83Zm-.91-3.66a6.62,6.62,0,0,0,3.27-.82,6.4,6.4,0,0,0,2.38-2.27,6,6,0,0,0,.89-3.27,6.69,6.69,0,0,0-.82-3.34,6,6,0,0,0-2.24-2.29,6.18,6.18,0,0,0-3.16-.82,6.25,6.25,0,0,0-4,1.28A6.41,6.41,0,0,0,233.1,155v3.43a5.45,5.45,0,0,0,2,3.38A6,6,0,0,0,239,163.17Z"/><path class="cls-1" d="M260,147.24l.37,4.53a9.05,9.05,0,0,1,2.19-2.83,10.8,10.8,0,0,1,2.86-1.83,6.59,6.59,0,0,1,2.54-.64L267.7,151a6.44,6.44,0,0,0-3.77.83,7,7,0,0,0-3.46,6v8.52h-4.62V147.24Z"/><path class="cls-1" d="M273.06,140.38a2.28,2.28,0,0,1,.85-1.79,2.8,2.8,0,0,1,1.85-.73,2.73,2.73,0,0,1,1.83.73,2.31,2.31,0,0,1,.82,1.79,2.26,2.26,0,0,1-.82,1.83,2.78,2.78,0,0,1-1.83.69,2.86,2.86,0,0,1-1.85-.69A2.23,2.23,0,0,1,273.06,140.38Zm.23,6.86h4.62v19.14h-4.62Z"/><path class="cls-1" d="M287,138.87h4.67v8.42h5.13v3.62h-5.13v15.47H287V150.91h-3.39v-3.62H287Z"/></g></g></svg>