<svg xmlns="http://www.w3.org/2000/svg" viewBox="0 0 147 66.48"><defs><style>.cls-1{fill:#f2f2f2;}.cls-2{fill:#5eb7b7;}</style></defs><title>valeur_1</title><g id="Calque_2" data-name="Calque 2"><g id="Calque_1-2" data-name="Calque 1">
<path class="cls-1" d="M11,0,28.64,44.23,45.54,0H56.4L28.2,66.48,0,0Z"/>
<path class="cls-2" d="M58.21,17.36a5,5,0,0,1-2.37-.55,4,4,0,0,1-1.67-1.62,5.26,5.26,0,0,1-.62-2.66,5.24,5.24,0,0,1,.65-2.66,4.63,4.63,0,0,1,1.71-1.72,4.69,4.69,0,0,1,2.34-.6,4,4,0,0,1,2.12.51,4.29,4.29,0,0,1,1.32,1.25l.16-1.39h2v9.22H61.67V15.69a5,5,0,0,1-.73.7,4.41,4.41,0,0,1-1.17.69A4,4,0,0,1,58.21,17.36Zm.59-1.83A3,3,0,0,0,60.65,15a2.7,2.7,0,0,0,1-1.6v-1.9A2.84,2.84,0,0,0,60.6,10a3,3,0,0,0-1.87-.59,2.81,2.81,0,0,0-1.45.38,2.89,2.89,0,0,0-1.06,1.08,3.34,3.34,0,0,0,0,3.19,3.05,3.05,0,0,0,1.09,1.11A2.78,2.78,0,0,0,58.8,15.53Z"/>
<path class="cls-2" d="M67.38,0h2.23V17.14H67.38Z"/>
<path class="cls-2" d="M77.42,17.36a5.67,5.67,0,0,1-2.73-.62A4.33,4.33,0,0,1,72.92,15a5.11,5.11,0,0,1-.62-2.52A4.59,4.59,0,0,1,73,10a5.1,5.1,0,0,1,1.86-1.77,5.22,5.22,0,0,1,2.61-.66,4.45,4.45,0,0,1,3.07,1.07,5.31,5.31,0,0,1,1.65,3L75,14.12a2.77,2.77,0,0,0,1,1,2.94,2.94,0,0,0,1.45.36,3.38,3.38,0,0,0,1.14-.2,3.45,3.45,0,0,0,1-.58l1,1.66a6.86,6.86,0,0,1-1.57.74A5.56,5.56,0,0,1,77.42,17.36Zm-2.91-5c0,.17,0,.32,0,.47l5.14-1.88a3.15,3.15,0,0,0-.85-1.12,2.2,2.2,0,0,0-1.51-.49,2.61,2.61,0,0,0-2,.85A3.09,3.09,0,0,0,74.51,12.33Z"/>
<path class="cls-2" d="M87.64,17.52a3,3,0,0,1-2.11-.77,2.67,2.67,0,0,1-.85-2V7.92h2.23V14a2,2,0,0,0,.42,1.18,1.51,1.51,0,0,0,1.19.47,2.19,2.19,0,0,0,1.35-.45,3,3,0,0,0,.93-1.25,4.42,4.42,0,0,0,.35-1.78V7.92h2.22v9.22h-2l-.14-1.69a3.73,3.73,0,0,1-1.42,1.48A4.08,4.08,0,0,1,87.64,17.52Z"/>
<path class="cls-2" d="M98.85,7.92,99,10.11a4.46,4.46,0,0,1,1.06-1.37,5.49,5.49,0,0,1,1.38-.89,3.31,3.31,0,0,1,1.22-.3l-.11,2.2a3.14,3.14,0,0,0-1.82.4,3.3,3.3,0,0,0-1.22,1.24A3.19,3.19,0,0,0,99.09,13v4.1H96.86V7.92Z"/>
<path class="cls-2" d="M107.94,17.34a5.35,5.35,0,0,1-2-.36,4.14,4.14,0,0,1-1.56-1.05l.95-1.28a4.33,4.33,0,0,0,1.19.84,2.84,2.84,0,0,0,1.19.29,2.37,2.37,0,0,0,1.12-.26.88.88,0,0,0,.49-.85.94.94,0,0,0-.32-.75,2.81,2.81,0,0,0-.81-.44c-.32-.12-.67-.23-1-.33-1.58-.51-2.36-1.42-2.36-2.71a2.83,2.83,0,0,1,.36-1.37A2.7,2.7,0,0,1,106.31,8a3.89,3.89,0,0,1,1.87-.41,6.21,6.21,0,0,1,1.74.23,4.17,4.17,0,0,1,1.44.79L110.49,10a2.69,2.69,0,0,0-.93-.61,3.71,3.71,0,0,0-1-.23,2,2,0,0,0-1,.28.82.82,0,0,0-.44.74.93.93,0,0,0,.31.75,2.41,2.41,0,0,0,.8.43l1,.34a5,5,0,0,1,1.68.9,2.11,2.11,0,0,1,.68,1.68,3.17,3.17,0,0,1-.4,1.55,2.92,2.92,0,0,1-1.2,1.13A4.28,4.28,0,0,1,107.94,17.34Z"/>
<path class="cls-2" d="M48.73,41.84A5.74,5.74,0,0,1,46,41.22a4.36,4.36,0,0,1-1.76-1.75A5.11,5.11,0,0,1,43.61,37a4.57,4.57,0,0,1,.7-2.49,5.1,5.1,0,0,1,1.86-1.77,5.21,5.21,0,0,1,2.6-.66,4.46,4.46,0,0,1,3.08,1.07,5.31,5.31,0,0,1,1.65,3L46.28,38.6a2.77,2.77,0,0,0,1,1,2.93,2.93,0,0,0,1.44.36,3.43,3.43,0,0,0,1.15-.2,3.68,3.68,0,0,0,1-.58l1,1.66a6.6,6.6,0,0,1-1.56.74A5.61,5.61,0,0,1,48.73,41.84Zm-2.91-5c0,.17,0,.32,0,.47L51,35.4a3.07,3.07,0,0,0-.85-1.12,2.2,2.2,0,0,0-1.51-.49,2.61,2.61,0,0,0-2,.85A3.09,3.09,0,0,0,45.82,36.81Zm6.46-9-2.87,2.95H48l1.79-2.95Z"/>
<path class="cls-2" d="M59.76,41.84a4.58,4.58,0,0,1-2.34-.6,4.36,4.36,0,0,1-1.63-1.72,5.53,5.53,0,0,1-.59-2.64,5.1,5.1,0,0,1,.63-2.61,4.3,4.3,0,0,1,1.74-1.67A5.22,5.22,0,0,1,60,32a5,5,0,0,1,1.94.39,3.73,3.73,0,0,1,1.5,1.13V24.48H65.7V41.62H63.45V40.28a5.47,5.47,0,0,1-1.6,1.12A4.77,4.77,0,0,1,59.76,41.84ZM60.45,40a3,3,0,0,0,1.95-.61,2.92,2.92,0,0,0,1.05-1.62V35.91a2.64,2.64,0,0,0-1.07-1.52,3.21,3.21,0,0,0-1.93-.6,2.92,2.92,0,0,0-1.48.39,2.76,2.76,0,0,0-1.09,1.08,3.29,3.29,0,0,0,0,3.18A3.13,3.13,0,0,0,59,39.55,2.76,2.76,0,0,0,60.45,40Z"/>
<path class="cls-2" d="M72.14,42A3,3,0,0,1,70,41.23a2.71,2.71,0,0,1-.85-2V32.4h2.23v6.05a2,2,0,0,0,.42,1.18A1.51,1.51,0,0,0,73,40.1a2.19,2.19,0,0,0,1.35-.45,3,3,0,0,0,.94-1.25,4.61,4.61,0,0,0,.34-1.79V32.4h2.23v9.22h-2l-.13-1.7a3.71,3.71,0,0,1-1.43,1.49A4.08,4.08,0,0,1,72.14,42Z"/>
<path class="cls-2" d="M88.91,40.76a4.89,4.89,0,0,1-1.5.8,5.57,5.57,0,0,1-1.75.28A5.78,5.78,0,0,1,83,41.25a4.3,4.3,0,0,1-1.8-1.68A4.89,4.89,0,0,1,80.57,37a4.81,4.81,0,0,1,.68-2.57,4.58,4.58,0,0,1,1.8-1.67,5.06,5.06,0,0,1,2.39-.59,5.91,5.91,0,0,1,2,.31,4.48,4.48,0,0,1,1.51.86l-1.1,1.43a4,4,0,0,0-1-.55,3.31,3.31,0,0,0-1.3-.24,2.59,2.59,0,0,0-1.43.4,2.79,2.79,0,0,0-1,1.08A3.13,3.13,0,0,0,82.8,37a3,3,0,0,0,.38,1.52,2.9,2.9,0,0,0,1.08,1.09,3.19,3.19,0,0,0,1.58.39,3.38,3.38,0,0,0,1.07-.16,2.63,2.63,0,0,0,.87-.48Z"/>
<path class="cls-2" d="M95.37,41.84A5,5,0,0,1,93,41.29a4.09,4.09,0,0,1-1.68-1.62A5.26,5.26,0,0,1,90.72,37a5.14,5.14,0,0,1,.65-2.66,4.56,4.56,0,0,1,4-2.32,4,4,0,0,1,2.11.51,4.45,4.45,0,0,1,1.33,1.25L99,32.4h2v9.22H98.84V40.17a5.58,5.58,0,0,1-.73.7,4.75,4.75,0,0,1-1.17.69A4.07,4.07,0,0,1,95.37,41.84ZM96,40a3,3,0,0,0,1.85-.58,2.74,2.74,0,0,0,1-1.6v-1.9a2.9,2.9,0,0,0-1.07-1.5,3,3,0,0,0-1.87-.59,2.78,2.78,0,0,0-1.45.38,2.82,2.82,0,0,0-1.06,1.08,3.14,3.14,0,0,0-.4,1.6,3,3,0,0,0,.41,1.59,3,3,0,0,0,1.09,1.11A2.78,2.78,0,0,0,96,40Z"/>
<path class="cls-2" d="M105.43,28.36h2.25v4.06h2.47v1.75h-2.47v7.45h-2.25V34.17H103.8V32.42h1.63Z"/>
<path class="cls-2" d="M112.49,29.09a1.11,1.11,0,0,1,.41-.86,1.35,1.35,0,0,1,.89-.35,1.34,1.34,0,0,1,.89.35,1.12,1.12,0,0,1,.39.86,1.09,1.09,0,0,1-.39.88,1.36,1.36,0,0,1-.89.33,1.38,1.38,0,0,1-.89-.33A1.08,1.08,0,0,1,112.49,29.09Zm.11,3.31h2.23v9.22H112.6Z"/>
<path class="cls-2" d="M122.16,41.89,117,32.4h2.63l2.69,5.65,2.47-5.65h2.47l-5,9.49Z"/>
<path class="cls-2" d="M133.43,41.84a5.67,5.67,0,0,1-2.73-.62,4.33,4.33,0,0,1-1.77-1.75,5.11,5.11,0,0,1-.62-2.52,4.57,4.57,0,0,1,.7-2.49,5.1,5.1,0,0,1,1.86-1.77,5.22,5.22,0,0,1,2.61-.66,4.45,4.45,0,0,1,3.07,1.07,5.31,5.31,0,0,1,1.65,3L131,38.6a2.77,2.77,0,0,0,1.05,1,2.94,2.94,0,0,0,1.45.36,3.38,3.38,0,0,0,1.14-.2,3.68,3.68,0,0,0,1-.58l1,1.66a6.6,6.6,0,0,1-1.56.74A5.61,5.61,0,0,1,133.43,41.84Zm-2.91-5c0,.17,0,.32,0,.47l5.14-1.88a3.07,3.07,0,0,0-.85-1.12,2.2,2.2,0,0,0-1.51-.49,2.61,2.61,0,0,0-2,.85A3.09,3.09,0,0,0,130.52,36.81Z"/>
<path class="cls-2" d="M143.36,41.82a5.3,5.3,0,0,1-1.94-.36,4.18,4.18,0,0,1-1.57-1.05l1-1.28A4.33,4.33,0,0,0,142,40a2.84,2.84,0,0,0,1.19.29,2.41,2.41,0,0,0,1.13-.26.88.88,0,0,0,.48-.85.91.91,0,0,0-.32-.75,2.64,2.64,0,0,0-.8-.44c-.33-.12-.67-.23-1-.33-1.57-.51-2.36-1.42-2.36-2.71a2.83,2.83,0,0,1,.36-1.37,2.79,2.79,0,0,1,1.11-1.07,3.82,3.82,0,0,1,1.86-.41,6.29,6.29,0,0,1,1.75.23,4.27,4.27,0,0,1,1.43.78l-.86,1.35a2.82,2.82,0,0,0-.94-.61,3.35,3.35,0,0,0-1-.23,1.88,1.88,0,0,0-1,.28.84.84,0,0,0-.44.74.93.93,0,0,0,.31.75,2.47,2.47,0,0,0,.81.43l1,.34a4.94,4.94,0,0,1,1.69.9,2.1,2.1,0,0,1,.67,1.68,3.09,3.09,0,0,1-.4,1.55,2.8,2.8,0,0,1-1.2,1.13A4.28,4.28,0,0,1,143.36,41.82Z"/>
<path class="cls-1" d="M69.87,50.35a2.63,2.63,0,0,1-.06,1.3,4.16,4.16,0,0,1-.57,1.27,3.5,3.5,0,0,1-.87.92l-1.15-.56a3.16,3.16,0,0,0,.88-2.78Z"/>
<path class="cls-1" d="M38.67,66.48a4.54,4.54,0,0,1-2.34-.61,4.29,4.29,0,0,1-1.63-1.72,5.47,5.47,0,0,1-.59-2.64,5.05,5.05,0,0,1,.64-2.61,4.28,4.28,0,0,1,1.73-1.67,5.25,5.25,0,0,1,2.46-.57,4.82,4.82,0,0,1,1.94.4,3.71,3.71,0,0,1,1.5,1.12V49.11h2.23V66.26H42.36V64.91A5.49,5.49,0,0,1,40.76,66,4.92,4.92,0,0,1,38.67,66.48Zm.69-1.88a3.1,3.1,0,0,0,2-.6,3,3,0,0,0,1-1.63V60.54A2.67,2.67,0,0,0,41.29,59a3.21,3.21,0,0,0-1.93-.6,3,3,0,0,0-2.57,1.47,3,3,0,0,0-.41,1.6,3,3,0,0,0,.41,1.58,3.13,3.13,0,0,0,1.09,1.11A2.76,2.76,0,0,0,39.36,64.6Z"/>
<path class="cls-1" d="M52.42,66.48a5.63,5.63,0,0,1-2.74-.63,4.4,4.4,0,0,1-1.76-1.74,5.18,5.18,0,0,1-.62-2.53A4.61,4.61,0,0,1,48,59.1a5.15,5.15,0,0,1,1.87-1.78,5.21,5.21,0,0,1,2.6-.66,4.53,4.53,0,0,1,3.08,1.07,5.34,5.34,0,0,1,1.64,3L50,63.23a2.73,2.73,0,0,0,1.05,1,3,3,0,0,0,1.44.35,3.43,3.43,0,0,0,1.15-.2,3.79,3.79,0,0,0,1-.57l1,1.65a6.23,6.23,0,0,1-1.56.74A5.38,5.38,0,0,1,52.42,66.48Zm-2.91-5a3.46,3.46,0,0,0,0,.46L54.67,60a3.27,3.27,0,0,0-.85-1.12,2.26,2.26,0,0,0-1.51-.49,2.63,2.63,0,0,0-2,.85A3.12,3.12,0,0,0,49.51,61.45Z"/>
<path class="cls-1" d="M62.55,49.11h2.22V66.26H62.55Z"/>
<path class="cls-2" d="M76.25,66.48a5.1,5.1,0,0,1-2.36-.55,4.06,4.06,0,0,1-1.68-1.63,5.87,5.87,0,0,1,0-5.31,4.6,4.6,0,0,1,4.05-2.33,3.94,3.94,0,0,1,2.12.52,4.15,4.15,0,0,1,1.32,1.24L79.89,57h2v9.23H79.71V64.8a4.53,4.53,0,0,1-.73.71,4.68,4.68,0,0,1-1.17.68A4,4,0,0,1,76.25,66.48Zm.59-1.83a3,3,0,0,0,1.86-.59,2.73,2.73,0,0,0,1-1.6V60.57a2.83,2.83,0,0,0-1.07-1.51,3.1,3.1,0,0,0-1.86-.59,2.82,2.82,0,0,0-2.52,1.47,3.19,3.19,0,0,0-.4,1.6,3.13,3.13,0,0,0,.41,1.58,3.08,3.08,0,0,0,1.09,1.12A2.87,2.87,0,0,0,76.84,64.65Z"/>
<path class="cls-2" d="M83.24,54.58a1.17,1.17,0,0,1,.39-.89,1.21,1.21,0,0,1,.85-.36,1.28,1.28,0,0,1,1.21,1.25,1.14,1.14,0,0,1-.39.9,1.19,1.19,0,0,1-.82.34,1.23,1.23,0,0,1-.85-.34A1.14,1.14,0,0,1,83.24,54.58ZM85.42,57h2.23v9.23H85.42Zm2-2.45a1.17,1.17,0,0,1,.39-.89,1.14,1.14,0,0,1,1.66,0,1.14,1.14,0,0,1,.4.89,1.12,1.12,0,0,1-.4.9,1.18,1.18,0,0,1-1.66,0A1.14,1.14,0,0,1,87.41,54.58Z"/>
<path class="cls-2" d="M91.14,66.26V49.11h2.23V60.54l4.7-3.7L99.41,58,96,60.72l3.81,5.54h-2.6l-2.74-4.33-1.14.91v3.42Z"/>
<path class="cls-2" d="M102.19,53.73a1.13,1.13,0,0,1,.41-.87,1.35,1.35,0,0,1,.89-.35,1.34,1.34,0,0,1,.89.35,1.14,1.14,0,0,1,.39.87,1.1,1.1,0,0,1-.39.88,1.36,1.36,0,0,1-.89.33,1.38,1.38,0,0,1-.89-.33A1.09,1.09,0,0,1,102.19,53.73Zm.11,3.3h2.23v9.23H102.3Z"/>
<path class="cls-2" d="M111.79,66.48a4.49,4.49,0,0,1-2.34-.61,4.29,4.29,0,0,1-1.63-1.72,5.48,5.48,0,0,1-.6-2.64,5.15,5.15,0,0,1,.64-2.61,4.36,4.36,0,0,1,1.74-1.67,5.19,5.19,0,0,1,2.46-.57,4.82,4.82,0,0,1,1.94.4,3.85,3.85,0,0,1,1.5,1.12V49.11h2.23V66.26h-2.25V64.91a5.63,5.63,0,0,1-1.6,1.13A4.92,4.92,0,0,1,111.79,66.48Zm.68-1.88a3.15,3.15,0,0,0,2-.6,3,3,0,0,0,1-1.63V60.54A2.71,2.71,0,0,0,114.41,59a3.24,3.24,0,0,0-1.94-.6,2.91,2.91,0,0,0-1.47.39,3,3,0,0,0-1.1,1.08,3.12,3.12,0,0,0-.4,1.6,3.07,3.07,0,0,0,.4,1.58,3.25,3.25,0,0,0,1.1,1.11A2.75,2.75,0,0,0,112.47,64.6Z"/>
<path class="cls-2" d="M120.42,61.56a4.79,4.79,0,0,1,.66-2.5,4.86,4.86,0,0,1,1.82-1.75,5.43,5.43,0,0,1,2.68-.65,5.29,5.29,0,0,1,2.66.65A4.62,4.62,0,0,1,130,59.06a5,5,0,0,1,.63,2.5,4.9,4.9,0,0,1-.64,2.5,4.66,4.66,0,0,1-1.78,1.77,5.39,5.39,0,0,1-2.67.65,5.57,5.57,0,0,1-2.63-.6,4.51,4.51,0,0,1-1.82-1.7A4.91,4.91,0,0,1,120.42,61.56Zm2.25,0a3.22,3.22,0,0,0,.37,1.57,2.91,2.91,0,0,0,1,1.09,2.66,2.66,0,0,0,1.44.41,2.69,2.69,0,0,0,2.07-.89,3.12,3.12,0,0,0,.8-2.18,3.2,3.2,0,0,0-.8-2.2,2.69,2.69,0,0,0-2.07-.89,2.57,2.57,0,0,0-1.45.42A3,3,0,0,0,123,60,3.28,3.28,0,0,0,122.67,61.58Z"/></g></g></svg>