<svg xmlns="http://www.w3.org/2000/svg" viewBox="0 0 125.45 39.14"><defs><style>.cls-1{fill:#5eb7b7;}.cls-2{fill:#f2f2f2;}</style></defs><title>where</title><g id="Calque_2" data-name="Calque 2"><g id="Calque_1-2" data-name="Calque 1"><path class="cls-1" d="M0,19.81a18.59,18.59,0,0,1,1.49-7.42A19.53,19.53,0,0,1,5.64,6.2,20.05,20.05,0,0,1,11.78,2,18.2,18.2,0,0,1,19.28.43,18.46,18.46,0,0,1,26.77,2,20.17,20.17,0,0,1,33,6.2a19.84,19.84,0,0,1,4.2,6.19,18.45,18.45,0,0,1,1.52,7.42,18.72,18.72,0,0,1-1.52,7.52A19.63,19.63,0,0,1,26.77,37.65a19.11,19.11,0,0,1-7.49,1.49,18.84,18.84,0,0,1-7.5-1.49,19.7,19.7,0,0,1-6.14-4.11,18.42,18.42,0,0,1-4.15-6.13A19.19,19.19,0,0,1,0,19.81Zm5.64.05A14,14,0,0,0,12.43,32a13.4,13.4,0,0,0,7,1.88A13,13,0,0,0,26.33,32a14.07,14.07,0,0,0,6.74-12.17,14,14,0,0,0-1.86-7.13,14.1,14.1,0,0,0-5-5.1A13.14,13.14,0,0,0,19.33,5.7a13.09,13.09,0,0,0-7,1.91,13.87,13.87,0,0,0-4.91,5.12A14.33,14.33,0,0,0,5.64,19.86Z"/><path class="cls-2" d="M44.08,17.77a3.66,3.66,0,0,1-2.61-1,3.29,3.29,0,0,1-1-2.45V5.9h2.76v7.47a2.4,2.4,0,0,0,.51,1.46,1.87,1.87,0,0,0,1.48.59,2.68,2.68,0,0,0,1.66-.56A3.74,3.74,0,0,0,48,13.32a5.58,5.58,0,0,0,.42-2.21V5.9h2.76V17.3H48.69l-.17-2.1A4.5,4.5,0,0,1,46.76,17,5,5,0,0,1,44.08,17.77ZM41.76,0h3l1.93,3.66H45Z"/><path class="cls-2" d="M61.66,6.13l.19,2.18A4.24,4.24,0,0,1,63.6,6.4a5.46,5.46,0,0,1,2.81-.71,3.71,3.71,0,0,1,2.62,1A3.36,3.36,0,0,1,70.12,9.1v8.44H67.36V10.06a2.18,2.18,0,0,0-.51-1.43A2,2,0,0,0,65.32,8a3,3,0,0,0-2.42,1.2,4.79,4.79,0,0,0-1,3.08v5.22H59.18V6.13Z"/><path class="cls-2" d="M73.48,11.72a5.84,5.84,0,0,1,.82-3.08,5.94,5.94,0,0,1,2.25-2.17,6.6,6.6,0,0,1,3.31-.81,6.47,6.47,0,0,1,3.29.81,5.78,5.78,0,0,1,2.19,2.17,6.2,6.2,0,0,1,.77,3.08,6.09,6.09,0,0,1-.79,3.1A5.72,5.72,0,0,1,83.11,17a6.56,6.56,0,0,1-3.3.81,7,7,0,0,1-3.25-.74A5.55,5.55,0,0,1,74.31,15,6.07,6.07,0,0,1,73.48,11.72Zm2.78,0a3.87,3.87,0,0,0,.47,1.94A3.63,3.63,0,0,0,78,15a3.38,3.38,0,0,0,1.79.5,3.28,3.28,0,0,0,2.55-1.09,3.84,3.84,0,0,0,1-2.7,3.91,3.91,0,0,0-1-2.72,3.29,3.29,0,0,0-2.55-1.1,3.19,3.19,0,0,0-1.8.52,3.58,3.58,0,0,0-1.25,1.39A3.89,3.89,0,0,0,76.26,11.75Z"/><path class="cls-2" d="M93.1,18a3.66,3.66,0,0,1-2.61-1,3.29,3.29,0,0,1-1-2.45V6.13H92.2v7.48a2.43,2.43,0,0,0,.52,1.46,1.89,1.89,0,0,0,1.47.58,2.62,2.62,0,0,0,1.66-.56A3.7,3.7,0,0,0,97,13.55a5.55,5.55,0,0,0,.42-2.21V6.13h2.75V17.54H97.71l-.16-2.11a4.72,4.72,0,0,1-1.76,1.85A5.11,5.11,0,0,1,93.1,18Z"/><path class="cls-2" d="M107.81,17.78a6.48,6.48,0,0,1-2.4-.45,5.15,5.15,0,0,1-1.94-1.3l1.17-1.58a5.56,5.56,0,0,0,1.48,1,3.43,3.43,0,0,0,1.47.35,2.94,2.94,0,0,0,1.39-.31,1.09,1.09,0,0,0,.6-1,1.15,1.15,0,0,0-.39-.93,3.52,3.52,0,0,0-1-.55c-.4-.14-.83-.28-1.28-.4q-2.93-1-2.92-3.36a3.45,3.45,0,0,1,.45-1.69,3.35,3.35,0,0,1,1.36-1.33,4.82,4.82,0,0,1,2.31-.5,7.59,7.59,0,0,1,2.16.28A5.32,5.32,0,0,1,112,7L111,8.64a3.19,3.19,0,0,0-1.15-.75,3.89,3.89,0,0,0-1.22-.29,2.33,2.33,0,0,0-1.28.34,1,1,0,0,0-.55.92,1.14,1.14,0,0,0,.38.92,3.05,3.05,0,0,0,1,.54l1.24.42a6.12,6.12,0,0,1,2.09,1.12,2.57,2.57,0,0,1,.83,2.07,3.8,3.8,0,0,1-.49,1.91,3.57,3.57,0,0,1-1.49,1.41A5.35,5.35,0,0,1,107.81,17.78Z"/><path class="cls-2" d="M41.75,21.43h2.79v5h3.05v2.16H44.54v9.22H41.75V28.61h-2V26.45h2Z"/><path class="cls-2" d="M53.08,26.43l.21,2.7a5.45,5.45,0,0,1,1.31-1.69,6.4,6.4,0,0,1,1.71-1.09A3.91,3.91,0,0,1,57.83,26l-.14,2.73a3.87,3.87,0,0,0-2.25.49,4.21,4.21,0,0,0-1.52,1.53,4.11,4.11,0,0,0-.54,2v5.07H50.62V26.43Z"/><path class="cls-2" d="M59.54,32a5.87,5.87,0,0,1,3.08-5.25A6.6,6.6,0,0,1,65.93,26a6.47,6.47,0,0,1,3.29.81,5.68,5.68,0,0,1,2.18,2.17,6.47,6.47,0,0,1,0,6.18,5.79,5.79,0,0,1-2.21,2.18,6.56,6.56,0,0,1-3.3.81,7,7,0,0,1-3.25-.74,5.55,5.55,0,0,1-2.25-2.1A6.07,6.07,0,0,1,59.54,32Zm2.79,0A4,4,0,0,0,62.79,34a3.66,3.66,0,0,0,1.27,1.35,3.35,3.35,0,0,0,1.79.5,3.28,3.28,0,0,0,2.55-1.09,3.84,3.84,0,0,0,1-2.7,3.91,3.91,0,0,0-1-2.72,3.29,3.29,0,0,0-2.55-1.1,3.17,3.17,0,0,0-1.8.52,3.68,3.68,0,0,0-1.26,1.39A4,4,0,0,0,62.33,32.05Z"/><path class="cls-2" d="M79.17,38.3a3.66,3.66,0,0,1-2.61-1,3.29,3.29,0,0,1-1-2.45V26.43h2.76v7.48a2.43,2.43,0,0,0,.51,1.45,1.9,1.9,0,0,0,1.48.59,2.68,2.68,0,0,0,1.66-.56,3.6,3.6,0,0,0,1.16-1.54,5.41,5.41,0,0,0,.43-2.21V26.43h2.75v11.4H83.78l-.16-2.1a4.63,4.63,0,0,1-1.76,1.84A5,5,0,0,1,79.17,38.3Z"/><path class="cls-2" d="M95.32,38.16,88.91,26.43h3.25l3.33,7,3.05-7h3.06L95.46,38.16Z"/><path class="cls-2" d="M109.27,38.11a7,7,0,0,1-3.39-.78,5.46,5.46,0,0,1-2.18-2.16,6.32,6.32,0,0,1-.76-3.12A5.62,5.62,0,0,1,103.8,29a6.39,6.39,0,0,1,2.3-2.2,6.51,6.51,0,0,1,3.22-.82,5.55,5.55,0,0,1,3.81,1.33,6.57,6.57,0,0,1,2,3.72l-8.92,3.09a3.46,3.46,0,0,0,1.3,1.22,3.56,3.56,0,0,0,1.78.44,4.19,4.19,0,0,0,1.42-.24A4.83,4.83,0,0,0,112,34.8l1.25,2.05a8.07,8.07,0,0,1-1.94.92A7,7,0,0,1,109.27,38.11Zm-3.6-6.23c0,.2,0,.4,0,.58l6.36-2.32a3.8,3.8,0,0,0-1-1.39,2.75,2.75,0,0,0-1.87-.6,3.22,3.22,0,0,0-2.49,1.05A3.77,3.77,0,0,0,105.67,31.88Z"/><path class="cls-2" d="M120.71,26.43l.21,2.7a5.45,5.45,0,0,1,1.31-1.69,6.4,6.4,0,0,1,1.71-1.09,3.87,3.87,0,0,1,1.51-.39l-.13,2.73a3.87,3.87,0,0,0-2.25.49A4.12,4.12,0,0,0,121,32.76v5.07h-2.76V26.43Z"/></g></g></svg>