<svg xmlns="http://www.w3.org/2000/svg" viewBox="0 0 664.27 630.49"><defs><style>.cls-1{fill:#84cabf;}.cls-2{fill:#f2e100;}.cls-3{fill:#eeeeef;}.cls-4{fill:#cf7100;}.cls-5{fill:#c6000b;}.cls-6{fill:#fff;}.cls-7{fill:#0d131a;}.cls-8{fill:#cbbd00;}.cls-9{fill:#72b0a6;}.cls-10{fill:#a95b00;}.cls-11{fill:#c8c9ca;}</style></defs><title>Fichier 3</title><g id="Calque_2" data-name="Calque 2"><g id="Calque_1-2" data-name="Calque 1"><path class="cls-1" d="M302.88,322.09q-9.47-5.25-33.11-43.27-20.32-32.74-27-48-6.12-13.67-13.31-37.49-8.58-27.33-5.61-29.61,4.56-3.31,27.33-4l5.26-17.7q6.12-17.86,10.33-17.87t45,33.11l39.94,33.11,8.41,17a163,163,0,0,0,32.06,38l-2.11,24.17q-5.43,26.81-22.77,40.29-20,15.59-35.91,18-14,2.1-28.55-5.78"/><path class="cls-1" d="M577.55,32.35Q619.07,62,619.07,99.09a17.29,17.29,0,0,1-3.86,11.57l-5.78-7.89q-12.78,25.58-12.78,45,0,28.56,8.93,28.56,4,0,7.36-3.86l2.62-4,4.91,6.14a33.37,33.37,0,0,1,4.73,17.16,23.35,23.35,0,0,1-6.13,16.12L612.94,213q-5.61,25.92-37.49,48a134.22,134.22,0,0,1-78,24.17q-65.17,0-113.52-46.77Q337,193.16,337,136.41,337,76.32,384,37.78,427.07,2.58,484,2.57q51.86,0,93.54,29.78"/><path class="cls-1" d="M573.17,268q8.42,3.69,16.64,8.06,13.32,7.19,36.62,23h11.21q11.39.52,11.73,3,.89,3.68-2.8,17.87l6.48,2.8q6.66,3.15,7.18,5.6.88,3.69-13.31,17.87,4.56,6.66,2.1,12.09-2.26,4.9-22.24,11.91-22.6,7.71-43.27,7.71a122.45,122.45,0,0,1-36.09-5.26l-13.49-5.25a275.51,275.51,0,0,0,1.76-43.8,116.9,116.9,0,0,0-5.26-29.08l-4.73-13,22.42-7q6-2.1,18.4-9.28l6.65,2.8"/><path class="cls-1" d="M261,415.29q9.47,0,21.9,11,14.54,12.8,23.12,33.46,20.49,49.76,13.31,65.52-2.62,6.12-13.83,21.19-14.72,19.8-20,28l-22.43,32.41q-12.78,17.52-15.06,18.39-2.81,1.23-24.53-20.85-36.26,14.55-38,13.67-1.57-.71-3.68-24.88-28.38-15.06-28.73-19.62-.16-2.79,12.44-14.19l12.61-10.86a305.63,305.63,0,0,1,4.73-32.23q7.19-35.91,19.45-53.95Q234,415.28,261,415.29"/><path class="cls-1" d="M460.71,496.57q14.54-9.46,31.36-30.66l14-19.44,18.22,17q18,21.38,18,43.44,0,15.6-2.45,25.4L537.26,539l14.37,7.18q14,7.71,13.13,10.86-.69,3.51-13.66,12.26-1.05.71,1.58,2.81,2.63,2.28,1.22,3.15-18,10.86-48.7,21.72-29.07,10.51-36.26,9.64-4.54-.52-18.57-18.22-12.44-15.76-15.06-21.55-1.57-3.33-22.77-21.37l-21-17.34q45.72-16.65,69.19-31.53"/><path class="cls-1" d="M5.61,323.67Q5.61,276,37,245q29.79-29.61,71.47-29.61,37.48,0,59.91,26.45,23.31,27.33,23.3,75.68l-3.33,33.81A429.27,429.27,0,0,0,185,399.87a100.53,100.53,0,0,0,9.81,42.92,79.65,79.65,0,0,0,9.64,16.46l-7.71,16.12-8.41,21.72q-12.26-.16-29.78-4.38-35-8.76-61.31-29.6Q58.87,432.45,34,397.24,5.62,357,5.61,323.67"/><path class="cls-2" d="M392.22,245.37l17.86,11.56a278.08,278.08,0,0,0,43.27,21.19q21.19,8.07,48.88,6.49l23.47-3.16,5.61,17.87a167.83,167.83,0,0,1,5.43,41q0,78.48-54.48,135.76Q426.9,534.23,349,534.23a80.88,80.88,0,0,1-23.12-3l-7.36-3.15q1.92-7.89.87-21.37-2.26-27-17.69-55.18-15.24-28.21-31.71-35.21a21.55,21.55,0,0,0-9.63-2.11l-3.68.53L267,405.48a140.43,140.43,0,0,0,21.37-30.66,126.25,126.25,0,0,0,13-36.26l1.58-14.89,4.9,2.28a50.35,50.35,0,0,0,13.32,2.8q22.59,1.39,44.49-16.64,18.57-15.24,24.35-42.57l2.28-24.17"/><path class="cls-3" d="M288.16,308.43q4.38,6.13,15.59,15.06l-2.62,16.3a129.32,129.32,0,0,1-12.27,34.15,137.44,137.44,0,0,1-21.37,29.61l-11.91,11.56L250.15,417l-11.21,4.73q-4.73,2.44-11.74,9.63l-6.13,6.83q1.58-10,4.21-21.54,5.07-22.95,9.8-30.48,3.16-4.9,14.89-17.7,11.22-12.43,16.82-22.07,6.31-10.86,8.41-33.28l1.05-20.32,11.91,15.59"/><path class="cls-4" d="M275,312.63q-1.57,24.18-8.23,35-5.61,9.45-18.39,23.12Q236,383.93,233.16,389q-6.32,11.21-12.61,47.12l-16.12,23.12q-4.91-4.72-9.64-15.06Q185,423.34,185,394.79q0-66.92,28.38-124.37,14.19-28.74,28.38-44l15.94,30.83,17.52,33.28L275,312.63"/><path class="cls-3" d="M316,161.11l19.26-13.32,10.52,40.29-29.78-27"/><path class="cls-5" d="M426,142.19q-1.75-3.15-.71-16.47a153,153,0,0,1,5.61-28.9q12.27-39.76,37.84-39.77,10.34,0,15.24,14.37,6,17-2.63,43.09a120.2,120.2,0,0,1-11.56,25q-6.84,11-11.56,13-4.22,1.57-17.87-3.33-13.14-4.73-14.36-7"/><path class="cls-5" d="M609.43,102.77q2.64,0,6.49,7.54,5.25,10.16,5.25,24.87,0,16.65-5.78,29.78-5.43,12.27-11.21,12.26-8.41,0-8.41-23.65a102.24,102.24,0,0,1,6.83-36.78l6.83-14"/><path class="cls-6" d="M459.48,153.05a77.46,77.46,0,0,0,14.89-18.92,197.11,197.11,0,0,0,10-21.37l-2.1,19.09q-3,19.46-7,21.55l-10.34,1-5.43-1.4"/><path class="cls-7" d="M461.59,74.92q4.38.87,6.65,9.11,2.28,8.76.18,20.32a39.75,39.75,0,0,1-7.18,17.17q-5.43,7.19-11.22,6-5.59-1.22-7.53-10-1.92-8.05.35-18.4,2.63-11.91,8.59-18.91,5.43-6.14,10.16-5.26"/><path class="cls-7" d="M600.5,157.08q-2.62-.89-3-7.18a45.32,45.32,0,0,1,1.05-12.09A44.05,44.05,0,0,1,603,125.72q3.51-6.14,6.48-4.73,3.17,1.41,3.33,8.23a47.49,47.49,0,0,1-1.4,13.32,26.19,26.19,0,0,1-5.25,10.86q-3.51,4.2-5.61,3.68"/><path class="cls-6" d="M466.49,58.8q3.33,1.94,5.61,8.24a24.61,24.61,0,0,1,.17,15.06A20,20,0,0,1,463.34,94q-5.79,3.69-10.86,1.93-6.32-1.92-8.41-8.76-2.1-7,1.22-15.94A20.53,20.53,0,0,1,455.81,60q7-3.49,10.68-1.23"/><path class="cls-6" d="M609.08,108.9c1,.35,1.87,1.76,2.46,4.21a18.06,18.06,0,0,1,0,7.88q-2.64,12.09-6.66,11.39-2.46-.52-3.15-4.21a20.86,20.86,0,0,1,.52-8.75q3.15-11.57,6.83-10.52"/><path class="cls-8" d="M392.22,245.37,413.94,258a271.56,271.56,0,0,0,54.3,20.84q17,4.21,39.07,3.16l18.57-1.93,2.62,6.48a54.63,54.63,0,0,1-12.26,7.53,84.54,84.54,0,0,1-35.56,7.36q-21.37,0-52.55-21.72-28-19.62-35.91-34.33"/><path class="cls-8" d="M452.83,501.47q-47.65,32.76-102.13,32.76l-22.77-3-9.46-3.15,1.93-8.41A49.19,49.19,0,0,0,320,502l-3.15-17-1.22-7.89q35.38,12.79,88.63,11.74,58.51-1,85.31-20.15-13,16.47-36.78,32.76"/><path class="cls-9" d="M286.41,198.24q-1.76,5.61-4.2,7c-1.52.94-2.63-.12-3.33-3.15a97.16,97.16,0,0,1-1.23-20.67l.7-11c0-4,.59-6.83,1.75-8.58q1.93-3.33,4.91,4.73,6.14,16.46,1.4,31.7"/><path class="cls-9" d="M301.65,322.62q-11-8.42-31.35-40.47-18-28.72-25.76-46.77-6.12-14-12.26-33.11-5.25-16.11-7.18-24.7-2.28-9.45.88-11.56,3.68-2.62,13,11.56L304.1,256.4q53.08,63.94,47.13,67.27a50.77,50.77,0,0,1-22.43,6.13q-16.29,1.05-27.15-7.18"/><path class="cls-9" d="M580.71,377.62a112.66,112.66,0,0,1-35-5.08l-11.74-5.25,2.81-27q11.73,7,43.44,13.49,39.06,8.06,68.84,4.38-3.33,4.9-13.49,9.81-20.49,9.63-54.82,9.63"/><path class="cls-9" d="M455.1,501q-8.75,6.3-5.43,18.21,3,11.4,15.59,22.78,30.84,27.85,73,22.59l-5.25-2.27q-6-2.28-5.26-2.46l18.92-1.75,19.1-4q-3.69,7.37-14.37,14.89c-.47.24-.17,1.23.88,3s1.28,2.63.7,3q-7.37,4.73-30.48,16.12-22.95,11-39.77,14.36l-15.94.7q-4-1.23-29.78-39.76l-46.42-36.44L404.3,525l23.48-9.46A260.74,260.74,0,0,0,455.1,501"/><path class="cls-9" d="M154.5,574.87q-.69-3.33,15.77,3.85Q186,585.56,183.93,592l-16.11-5.43L154.5,574.87"/><path class="cls-9" d="M222.3,603.77l-22.78,10.51-9.63,2.11-6,.7,1.58-5.61q1.05,1.57,14.36-5.6,15.42-8.07,18.57-8.76,4.91-1.23,6,2.1.87,3-2.1,4.55"/><path class="cls-9" d="M239.46,619.89q1.75.87,10.87-10A116.93,116.93,0,0,0,264,590.46l28.38-54.83q23.29-47.64,21.54-56.41l4.91,17.7q4.2,19.79-.35,31.18a67.77,67.77,0,0,1-11.91,19.27,207.28,207.28,0,0,0-17.7,22.42q-37.12,56.76-39.94,56.76l-5.78-3.33-3.68-3.33"/><path class="cls-9" d="M198.12,471.17l-9.81,25.92q-11.73.53-29.78-4-36.08-9.1-67.44-34.33a278.16,278.16,0,0,1-55.18-58.68L20.15,372.89q33.8,18.57,38.71,19.1,5.09.69,33.63-7.36Q110,420.72,145.4,447.34q31.69,23.84,52.72,23.83"/><path class="cls-9" d="M9.46,289.16a108.48,108.48,0,0,1,10.69-23.82l6-8.94q-5.61,30.84,4,55.53,8.42,21.56,26.28,34,16.45,11.55,34.33,11,18.23-.69,28.2-13.84l-2.27,8.59a61.54,61.54,0,0,1-7.19,15.94q-5.6,8.58-18,15.94-14.19,8.4-27,8.41Q51,392,37.84,383.93,25,376.22,18.39,364.84-2.8,328.92,9.46,289.16"/><path class="cls-10" d="M207.76,283.9a185.45,185.45,0,0,1,13.14-26.1l5.78-8.58q-12.45,33.11-9.11,85.84,3.15,49.21,14.19,61l-11.21,40.11-16.12,23.12q-5.25-3.5-10.34-13.66-10.16-20.32-8.58-54.13,2.81-60.78,22.25-107.56"/><path class="cls-11" d="M274.5,395.32l-16.12,19.44-7.7,2.28a64.36,64.36,0,0,0-13.49,6.13l-16.64,13q3.31-17.34,5.08-24l3.67-10.68,2.46-5.43q1.58,4.91,13,6,13.85,1.23,29.78-6.65"/><path class="cls-7" d="M604.35,54.6q13.32,17.34,17.17,34,3.86,16.47-3.33,24.53c-.46.58-1.11-.41-1.92-3s-1.06-4.38-.71-5.08q4.22-6.83-1.57-21.2-6-14.71-19.27-29.95Q561.09,15.53,515.36,8.7q-65-9.81-114.21,21.73t-58.33,89q-8.76,55.7,30.3,101.6Q412,266.56,476.65,277.25q45.38,7.53,85.84-13.49,38.19-20,47.29-51.5l3.16.17c1.75.82,2.51,1.64,2.27,2.46q-9.45,33.27-49.57,54.3-42.21,21.9-90,14Q408.34,272,366.82,224q-42-48.51-32.76-106.33,9.81-61.83,60.08-93.72Q444.6-8.11,516.42,2.75,571.25,11,604.35,54.6"/><path class="cls-7" d="M613.64,168.81c-.35-.35.06-1.05,1.22-2.1s2-1.17,2.63-.7q10.69,10.17,10,26.45-.88,16.13-11.92,24.18l-3.85-.35a25.19,25.19,0,0,0-5.08-3.86A15.36,15.36,0,0,0,599.1,210l-18.92,7.88q-18.39,7.71-28.73,7.36-4.38-.18-21.72-10.51-19.44-11.57-24-13.14-7.35-2.44-28.9-6.48l-32.24-4.9Q432.34,189,421,180.2a55.39,55.39,0,0,1-16.47-19.44c-1.75-3.62-2-5.73-.7-6.31s2.63.93,4.38,4.55q4.72,9.65,15.24,16.82a48.5,48.5,0,0,0,21.89,8.41l32.76,4.9q22.24,4.22,29.78,7,4.56,1.76,23.48,12.79,17,10,20.67,10.33,9.45.7,27.67-7l19.1-8.24q7.53-.35,15.24,6.31,6.3-5.61,7-18.57.69-14.19-7.36-22.95"/><path class="cls-7" d="M533.76,183.7q2.1-1,6.3,5.43c2.92,4.33,3.45,6.89,1.58,7.71s-4-1-6.31-5.43-2.86-7.12-1.57-7.71"/><path class="cls-7" d="M580.53,195.09q1.05,2.1-4,6c-3.27,2.45-5.25,3.21-6,2.27s.65-2.92,4-5.95,5.26-3.8,6-2.28"/><path class="cls-7" d="M604.18,85.08l4-.52c.46.7-.35,1.75-2.45,3.15l-4.21,4.38-4.2,6.65q-1.58,3.33-3.51,2.28c-1.28-.7-1.46-2.16-.52-4.38q4-8.58,10.86-11.56"/><path class="cls-7" d="M480.68,46.89c-2.22-1.17-3.15-2.27-2.8-3.33s1.81-.93,4,0a27.73,27.73,0,0,1,10.51,8.06,24.23,24.23,0,0,1,5.25,12.79c.24,3.74-.29,5.66-1.57,5.78s-2.4-1.75-3-5.25q-2.46-12.27-12.44-18"/><path class="cls-7" d="M484.88,139.21q-4.54,15.76-8.23,17.34-7.18,3.15-29.25-2.45-22.95-5.78-24.7-12.61-1.57-6.31,0-20.32a138,138,0,0,1,6.3-30q13-38.71,38.37-37,26.1,1.76,23.12,50.63a164.44,164.44,0,0,1-5.61,34.33M467,60.21q-10.17-.7-18.57,9.46Q440,80,434.26,100.5a165.74,165.74,0,0,0-4.73,24.7q-1.57,12.26-1,14.89l.87,1,3.33,2.27q7.89,4,23.48,6.66L474,151.3q2.28-2.46,5.43-15.59A159.34,159.34,0,0,0,484,107l.35-10.69q0-20.67-5.78-29.43A14.65,14.65,0,0,0,467,60.21"/><path class="cls-7" d="M482.61,77.37c-.12-.81.7-1.34,2.45-1.57s2.69,0,2.8.87q2.63,17.17-3.5,38.72-7,24.87-21.72,37.13l-2.81-.35c-1.4-.46-1.81-.93-1.22-1.4q14-12.26,20.67-36.26,6-21,3.33-37.14"/><path class="cls-7" d="M615.39,116.61q-2.28-7.53-5.61-11-4.9,9.45-7.88,23.47a128.8,128.8,0,0,0-2.63,25.22q0,10.69,2.28,17,1.23,3,2.28,3a6,6,0,0,0,4.38-1.57q3.85-3.15,6.48-11.91a100,100,0,0,0,3.15-21l.18-4.38a63.84,63.84,0,0,0-2.63-18.75m-3.68-20.14q2.1-2.28,1.93-.18l-1.93,5.61q6,4.55,9.46,16.29a61.53,61.53,0,0,1,2.63,21.9q-1.23,21.54-7.88,32.23-5.45,8.58-12.62,7.88-4.54-.34-7.18-6.83-5.08-12.44-.53-37.31,4.9-26.46,16.12-39.59"/><path class="cls-7" d="M315.67,164.08l-4.21-4.37A39.7,39.7,0,0,1,335.81,145c1.17-.23,1.81.76,1.93,3s-.35,3.44-1.4,3.68a42.39,42.39,0,0,0-20.67,12.43"/><path class="cls-7" d="M240.16,222.24l4.38,8.59a306,306,0,0,0-31.88,53.6q-19.44,41-23.3,91.79-4.38,56.94,17.17,81.11c.59.58.18,1.52-1.22,2.8s-2.4,1.64-3,1.05q-23-25.57-20.5-85,2.1-54.48,21.72-95.64a291,291,0,0,1,36.61-58.34"/><path class="cls-7" d="M270.65,320.52q3.15-20.85.52-35.21-.35-1.05,3.33,1.92,3.5,3,3.68,4.21,3,15.93-.53,34.51-3.33,17.69-10.33,27.67L249.1,374.47q-9.81,10.15-12.61,15.94a172.8,172.8,0,0,0-8.41,22.95,139.89,139.89,0,0,0-4.73,21.19l-3.16,4.91-3,2.63a222,222,0,0,1,5.43-27.68q4.38-16.64,8.76-26.28,3.15-6.83,14.19-18.92l16.11-19.44q5.79-9.11,8.94-29.25"/><path class="cls-7" d="M203.38,290.91c.11-.82,1.11-1,3-.52s2.74.87,2.62,1.57q-3.85,19.62,2.11,48.18,6.65,31,21.89,54.83c.47.7-.11,1.57-1.75,2.62l-3,.35q-18.21-28.2-24.17-57.8-5.43-25.93-.7-49.23"/><path class="cls-7" d="M299.37,322.62c0-.7,1.11-.53,3.33.52l3.33,2.11q-1,50.63-46.07,89.86c-.58.47-2.1.47-4.55,0s-3.22-.93-2.63-1.4q16.29-12.43,30.48-37.66,16.11-28.74,16.11-53.43"/><path class="cls-7" d="M522.55,282.68q-.52-1.23,2.1-2.28c1.75-.82,2.74-.82,3,0q12.43,28.2,12.43,53.78,0,121.57-94.41,175.88a198.93,198.93,0,0,1-74.45,25.4q-35,4.38-53.43-4.73c-.7-.35-.64-1.35.17-3s1.58-2.45,2.28-2.1q18.22,9.11,52.2,3.85a189.4,189.4,0,0,0,70.95-26.1q39.76-24.18,62.54-63.06,27-45.55,27-106.16a129.59,129.59,0,0,0-10.33-51.5"/><path class="cls-7" d="M381.18,294.06c-.23-.58.23-1.81,1.4-3.67s2.05-2.28,2.28-1.58Q392,306,410.79,319.64q18.91,13.49,45,20.15,23.64,6.12,45,4.55,21.36-1.75,32.58-10.69c.58-.46,1.46.06,2.63,1.58s1.46,2.51.87,3q-12.61,10-35,12.44A132.11,132.11,0,0,1,454.05,347a130.09,130.09,0,0,1-45.37-21.2q-18.92-13.83-27.5-31.71"/><path class="cls-7" d="M489.61,347.84q-3,34.34-29.07,92.85-26.81,60.07-47.65,74.8l-2.63-1.58c-1.05-1.52-1.28-2.51-.7-3q17-12.09,44.84-74.45,27.17-61,29.61-89.16c0-.82.93-1.11,2.8-.88s2.92.59,2.8,1.4"/><path class="cls-7" d="M359.28,313.16l2.11.7.87,1.93,3,45.89,2.1,41.52-.7,1.93-19.79,19.26q-22.61,20.33-42.22,30.13l-2.1.18-1.75-1.4-.18-1.23a2.84,2.84,0,0,1,1.58-2.63q27-13.49,59.56-47.29L359.46,361l-2.8-44.84V316c0-1.87.87-2.8,2.62-2.8"/><path class="cls-7" d="M450.9,447.52l27.5,1.22q16.82-.53,26.8-3.15c.82-.12.94.7.36,2.45l-1.93,2.81q-9.81,3.33-25.58,4.55a135.91,135.91,0,0,1-29.43-.35,131.5,131.5,0,0,1-48.87-16.29Q377.51,426,364.89,407.58c-.47-.7-.41-2.05.17-4s.94-2.69,1.41-2.1q11.2,16.64,35.56,29.43a175.12,175.12,0,0,0,48.87,16.64"/><path class="cls-7" d="M320.22,509.88c-.82-.12-1.05-.93-.7-2.45s.76-2.22,1.58-2.1l44.49,4.2q31.88,1.92,45.37.88l1.93.52,1.05,1.75.87,8.76c.24.82-.46,1.4-2.1,1.75l-2.63-.52-1.22-6.48-46.25-1.41-42.39-4.9"/><path class="cls-7" d="M272.92,421.07q-7.35-5.08-17.51-2.81-9.81,1.94-20.5,10.69-15.24,12.44-29.6,36.79-10.87,18.21-18.92,52.2-3.85,17-5.78,30.65l-1.06,1.76-15.94,14q-6.83,7-6.83,9.11.36,2.1,8.41,7a133.18,133.18,0,0,0,18.22,9.63,2.3,2.3,0,0,1,1.75,2.45q0,17.34,2.28,21.55,7-1.41,35.38-13l3.33.7,11.91,13q6.48,6.13,8.59,6.66Q250,619.71,262.76,602l18.22-27q6-9.64,25.58-35.21l6.83-8.94q4.38-5.61,4.38-17.69l-.88-11.74q-3.67-23.12-16.46-46.77-13-23.47-27.51-33.63m-92,89.69q6.82-33.28,17.34-51,19.26-32.4,42.74-43.44,20.67-10,35,0,29.07,20.31,42.39,62.53,12.61,40.29-.7,57.29Q296.05,563.31,285.89,578L267,608.15q-13.5,21.38-18.05,22.25-6.82,1.58-25.75-23.3A149.65,149.65,0,0,1,199,619.71q-11.75,4.74-15.07,3.51c-1.86-.7-3.09-3.1-3.67-7.18q-.54-4.74-.71-21.55l-19.79-8.41q-12.62-6.14-13.14-10.68-.35-3.85,6.48-11.22,7.71-8.4,22.07-17.51L181,510.76"/><path class="cls-7" d="M535,491.14a83.48,83.48,0,0,0-32.05-42.22q-.71-.53,2.27-3.68c1.87-2.22,3.16-3.09,3.86-2.63q25.57,17.86,34,48.7,7.53,27.51-1.75,46.6,28.2,12.09,28.2,18.92,0,4.2-16.64,15.24l-5.43-4.56q14.19-8.58,14.19-11,0-1.93-8.06-6.31a141.94,141.94,0,0,0-17.34-8.23l-1.93-1.75.7-2.63q8.94-20.85,0-46.42"/><path class="cls-7" d="M567.74,264.64q2.63-2.64,3.33-2.28,12.09,4.38,32.93,17.87,22.61,14.36,30.83,24.52c1.29,1.64,1.46,3,.53,4s-2.22.58-3.5-1q-7.89-9.81-32.94-24.35Q576.15,270.24,566,267.61q-1.05-.35,1.75-3"/><path class="cls-7" d="M626.25,298.62q-2.1-1.94-1-2.1l15.77-.7q9.45.69,11.56,3.5,1.22,1.76.17,7.71l-3.15,11q13.83,4.21,14.71,9.81.18,1.94-3.32,6.84A67,67,0,0,1,649.2,347a14.87,14.87,0,0,1,3.5,9.46q0,5.07-10.68,11.38Q630.8,374.29,614.34,378q-42.92,9.64-81.11-7.7c-.81-.35-.93-1.64-.35-3.86s1-3.33,1.75-3a118.94,118.94,0,0,0,24.18,7.36l36.26,3.5a88.35,88.35,0,0,0,35.56-7.7q15.42-6.84,15.42-10.51c0-2-.94-4.73-2.81-8.24a2.6,2.6,0,0,1,.35-3.33q12.09-12.08,13-15.94c-1.06-1.75-4.79-3.79-11.22-6.13l-1.92-1.22v-2.11q3.15-11,3.15-16.11v-.35l-7-1.4-10.51-.53-2.8-2.1"/><path class="cls-7" d="M93.37,294.59a17.91,17.91,0,0,0-10.51,0,14.85,14.85,0,0,0-7.71,6.13c-1.4,2.34-2.63,3.21-3.68,2.63s-1-2,.18-4.38q3.67-7.37,9.81-9.64,5.43-1.92,13.48-.17,13.66,3,22.43,15.94a48.87,48.87,0,0,1,8.76,28.55q0,24.53-19.1,43.27-18.91,18.39-43.09,18.4-25.23,0-44.32-22.25Q0,350.47,0,319.82q0-48.18,34.68-80.06,32.07-29.43,73.75-29.43,42.75,0,64.82,30.13,22.25,30.14,21,86.89a13.38,13.38,0,0,1-3.15,8.41c-2,2.21-2.92,2.16-2.81-.18q3.33-57.63-20-89-21.54-28.9-59.91-28.9-35,0-64.29,26.1-33.45,29.78-33.45,76,0,28.73,15.41,48.52t37.84,19.79q21.54,0,37-15.94,15.24-15.93,15.24-38.54,0-16.63-7.36-27.5-6.3-8.92-15.41-11.56"/><path class="cls-7" d="M4,343.29c-.23-.7.7-.88,2.8-.53s3.21.76,3.33,1.23q20.67,60.43,73.75,104.58,53.25,44.49,105.63,44.49c.82,0,.93,1.23.35,3.68s-1.28,3.68-2.1,3.68q-52.9,0-107.38-45.9Q24.88,407.75,4,343.29"/><path class="cls-7" d="M387,531.6q-.87-.52,3.15-2.45c2.57-1.29,4.09-1.81,4.56-1.58q25.4,13,52,46.42l15.94,21q6.83,8.75,9.28,8.58,16.81-1.05,48.52-14,30.31-12.44,30.49-16.64c.11-1.16-1.52-2.68-4.91-4.55a55.32,55.32,0,0,0-12.09-4.73q-6.82-2.1-6.13-3.86l7.53-.52a46.91,46.91,0,0,1,17.17,6.66q6.66,4.54,5.61,7.53-3.68,11-38.54,24.7-34.34,13.3-50.1,11.21-3.86-.52-29.43-30.31Q411.31,545.27,387,531.6"/><path class="cls-7" d="M349.3,183.7q1.23.7,2.1,5.61c.7,3.15.7,4.5,0,4q-10.15-6.32-48.17-37.49-34-27.85-35.91-27.5-2.46.35-7,13.66a115.21,115.21,0,0,0-5.26,21.9c-.46,4.67-1.4,7-2.8,6.83s-2.1-2.33-2.1-7a93.06,93.06,0,0,1,4.73-27.67q4.9-14.55,10.51-15.77,5.25-1,38.36,26.45,40.29,33.63,45.55,37"/><path class="cls-7" d="M392.39,245.19l3,1.75q1,11.22-2.8,27.15-4,16.83-10.69,26.11-15.94,22.07-39.59,29.25Q319,336.64,302,325.6q-21.9-14.19-55.35-82-33.12-66.74-27.68-81.8,1.75-4.91,14.36-5.61l19.1,1.23c.7.11,1,1.11.87,3s-.41,2.74-1.22,2.62a113.3,113.3,0,0,0-15.42,0c-5.6.47-8.82,1.11-9.63,1.93q-4.56,13,25.57,76.38,31.18,65.5,52.55,79.35,14.89,9.81,35.39,2.45t35.21-27.85q6.83-9.46,11.21-25.05,4.2-15.58,2.63-24.87l2.8-.18"/><path class="cls-7" d="M294.64,159.53q8.6,5.61,11.74,10.34,3.33,5.25.88,6.83-2.46,1.4-5.78-3.68-2.12-3.33-9.11-7.18-6.66-3.69-8.76-3.16-1.75,1.75-2.63,10.86a140,140,0,0,0,.35,24c.47,4.56-.29,6.89-2.28,7s-3-2.1-3.32-6.66q-3.33-39.06,4.55-42.74,4.56-2.1,14.36,4.38"/></g></g></svg>